<?xml version="1.0" standalone="no"?><!DOCTYPE svg PUBLIC "-//W3C//DTD SVG 1.1//EN" "http://www.w3.org/Graphics/SVG/1.1/DTD/svg11.dtd"><svg t="1614670193423" class="icon" viewBox="0 0 1054 1024" version="1.1" xmlns="http://www.w3.org/2000/svg" p-id="21034" xmlns:xlink="http://www.w3.org/1999/xlink" width="205.859375" height="200"><defs><style type="text/css"></style></defs><path d="M614.912 0v87.567059C815.390118 127.653647 966.294588 302.456471 966.294588 512S815.390118 896.301176 614.912 936.432941V1024C864.075294 982.678588 1054.117647 769.490824 1054.117647 512S864.075294 41.321412 614.912 0z m-527.058824 512c0 209.543529 150.889412 384.301176 351.352471 424.432941V1024C189.997176 982.678588 0 769.490824 0 512S189.997176 41.321412 439.220706 0v87.567059C238.757647 127.653647 87.838118 302.456471 87.838118 512z m520.463059 231.213176H444.641882V472.470588H322.258824L526.396235 240.941176l204.092236 231.529412h-122.172236v270.757647z" fill="#0084FF" p-id="21035"></path></svg>