<?xml version="1.0" standalone="no"?><!DOCTYPE svg PUBLIC "-//W3C//DTD SVG 1.1//EN" "http://www.w3.org/Graphics/SVG/1.1/DTD/svg11.dtd"><svg t="1614670012944" class="icon" viewBox="0 0 1024 1024" version="1.1" xmlns="http://www.w3.org/2000/svg" p-id="17686" xmlns:xlink="http://www.w3.org/1999/xlink" width="200" height="200"><defs><style type="text/css"></style></defs><path d="M512 64C264.6 64 64 264.6 64 512s200.6 448 448 448 448-200.6 448-448S759.4 64 512 64z m256 368c0 8.8-7.2 16-16 16H614.6c-14.3 0-21.4-17.2-11.3-27.3l36-36c-34-34-79.2-52.7-127.3-52.7s-93.3 18.7-127.3 52.7S332 463.9 332 512s18.7 93.3 52.7 127.3S463.9 692 512 692s93.3-18.7 127.3-52.7c9.2-9.2 17.4-19.3 24.3-30.2 14.3-22.3 44-28.8 66.3-14.5s28.8 44 14.5 66.3c-10.7 16.7-23.2 32.2-37.2 46.2C655 759.3 585.7 788 512 788s-143-28.7-195.2-80.8C264.7 655 236 585.7 236 512s28.7-143 80.8-195.2C369 264.7 438.3 236 512 236s143 28.7 195.2 80.8l33.5-33.5c10.1-10.1 27.3-2.9 27.3 11.3V432z" fill="#1875F0" p-id="17687"></path></svg>